<svg width="43" height="42" viewBox="0 0 43 42" fill="none" xmlns="http://www.w3.org/2000/svg">
<path d="M0.962036 0.461975H42.038V41.5383H0.962036V0.461975Z" fill="#F0DB4F"/>
<path d="M38.6763 31.7415C38.3754 29.8676 37.1535 28.2935 33.534 26.8258C32.2766 26.248 30.8748 25.8342 30.4571 24.8814C30.3088 24.3268 30.2891 24.0145 30.383 23.6788C30.6524 22.5894 31.9527 22.2498 32.9834 22.5622C33.6472 22.7846 34.2755 23.2962 34.6545 24.1122C36.427 22.9645 36.4234 22.972 37.6611 22.1832C37.208 21.4807 36.9661 21.1565 36.6695 20.8559C35.6034 19.6652 34.1508 19.0519 31.8277 19.0988L30.6176 19.2553C29.458 19.5483 28.3529 20.157 27.7048 20.9731C25.7603 23.1794 26.3149 27.0408 28.681 28.6299C31.012 30.3794 34.4363 30.7774 34.8737 32.4135C35.2993 34.4163 33.4017 35.0647 31.5157 34.8344C30.1257 34.5453 29.3527 33.8388 28.5169 32.5542C26.9787 33.4444 26.9787 33.4444 25.3971 34.354C25.7722 35.174 26.1662 35.5451 26.7949 36.2555C29.7704 39.2736 37.2162 39.1253 38.5516 34.5571C38.6058 34.4003 38.9654 33.3542 38.6763 31.7415ZM23.2922 19.3406H19.4502L19.4344 29.2736C19.4344 31.3861 19.5437 33.3227 19.2001 33.9163C18.6381 35.0838 17.1815 34.9391 16.5177 34.7126C15.8421 34.3806 15.4986 33.9084 15.1005 33.241C14.9913 33.0494 14.9092 32.9011 14.8817 32.8896L11.7579 34.8026C12.2774 35.8686 13.0425 36.7939 14.0227 37.3951C15.4867 38.2738 17.4545 38.5432 19.5125 38.0707C20.8519 37.6805 22.0076 36.8724 22.6126 35.6422C23.4874 34.0295 23.2997 32.0775 23.2919 29.9184C23.3115 26.396 23.2922 22.8742 23.2922 19.3406Z" fill="black"/>
</svg>
