<svg width="55" height="54" viewBox="0 0 55 54" fill="none" xmlns="http://www.w3.org/2000/svg">
<path d="M12.11 16.5038C14.81 16.5038 16.97 14.31 16.97 11.6438C16.97 8.9775 14.7763 6.78375 12.11 6.78375C9.44375 6.78375 7.25 8.9775 7.25 11.6438C7.25 14.31 9.44375 16.5038 12.11 16.5038ZM21.5938 20.1825V47.25H29.9637V33.885C29.9637 30.3412 30.6388 26.9325 34.9925 26.9325C39.3463 26.9325 39.3463 30.9825 39.3463 34.0875V47.25H47.75V32.4C47.75 25.11 46.1975 19.5075 37.6925 19.5075C33.6088 19.5075 30.875 21.735 29.7612 23.8613H29.66V20.1488H21.6275L21.5938 20.1825ZM7.925 20.1825H16.3288V47.25H7.925V20.1825Z" fill="#828282"/>
</svg>
