<svg width="56" height="49" viewBox="0 0 56 49" fill="none" xmlns="http://www.w3.org/2000/svg">
<path d="M45.721 15.8656C45.1356 15.6648 44.5453 15.4787 43.9506 15.3075C44.0505 14.8992 44.1425 14.4958 44.2241 14.0995C45.5643 7.59174 44.6882 2.34895 41.6956 0.622778C38.8264 -1.03205 34.134 0.693484 29.395 4.81916C28.9279 5.22647 28.4712 5.64554 28.0254 6.07596C27.7269 5.78976 27.4231 5.50911 27.1142 5.23415C22.1474 0.822862 17.1691 -1.03634 14.1797 0.694774C11.3131 2.35476 10.4642 7.28334 11.6708 13.4509C11.7908 14.0617 11.9264 14.6694 12.0773 15.2733C11.3726 15.4736 10.6926 15.6868 10.0419 15.9138C4.21873 17.9447 0.5 21.1273 0.5 24.4286C0.5 27.8382 4.49223 31.2581 10.5573 33.3318C11.049 33.4992 11.5448 33.6543 12.0442 33.7971C11.8821 34.4476 11.7381 35.1024 11.6124 35.7609C10.4621 41.8215 11.3604 46.6336 14.2193 48.283C17.1721 49.9864 22.1281 48.2357 26.9537 44.0159C27.345 43.6728 27.7277 43.3201 28.1014 42.9579C28.5843 43.424 29.08 43.8765 29.5881 44.3149C34.2627 48.3385 38.8793 49.9632 41.7354 48.3092C44.6854 46.6009 45.6443 41.4314 44.3995 35.142C44.3014 34.6493 44.1914 34.159 44.0697 33.6716C44.4177 33.5684 44.7593 33.4622 45.0923 33.3518C51.3976 31.2622 55.5 27.8838 55.5 24.4286C55.5 21.1153 51.6612 17.9112 45.721 15.8656ZM44.3535 31.121C44.0524 31.2204 43.7445 31.3168 43.4296 31.41C42.7336 29.2057 41.7943 26.8618 40.6446 24.44C41.7416 22.076 42.6448 19.762 43.3214 17.572C43.884 17.735 44.43 17.9067 44.9563 18.0878C50.046 19.8407 53.1505 22.4319 53.1505 24.4286C53.1505 26.5554 49.7976 29.3164 44.3535 31.121ZM42.0946 35.5985C42.645 38.3794 42.7235 40.8939 42.3589 42.8597C42.0314 44.6261 41.3727 45.8036 40.558 46.2753C38.8249 47.2789 35.1182 45.9744 31.1206 42.5333C30.648 42.1256 30.1869 41.7049 29.7377 41.2717C31.2875 39.5763 32.8363 37.6053 34.348 35.4162C37.0069 35.1802 39.5188 34.7943 41.7968 34.2675C41.9093 34.7205 42.0085 35.1642 42.0946 35.5985ZM19.2507 46.1019C17.5573 46.7 16.2085 46.7172 15.3932 46.2469C13.6583 45.2461 12.9371 41.3822 13.9209 36.1994C14.0378 35.5869 14.1717 34.9778 14.3224 34.3728C16.5753 34.8714 19.0689 35.2299 21.7341 35.4461C23.256 37.5881 24.8495 39.5569 26.4555 41.281C26.1142 41.6113 25.7648 41.9332 25.4077 42.2463C23.2737 44.1122 21.1353 45.4361 19.2507 46.1019ZM11.3174 31.1079C8.63549 30.1908 6.42066 28.9992 4.90258 27.6987C3.53832 26.5302 2.84975 25.3699 2.84975 24.4286C2.84975 22.4252 5.83543 19.8699 10.8153 18.1332C11.4196 17.9226 12.0521 17.7238 12.7085 17.5372C13.3969 19.7766 14.2996 22.1181 15.3891 24.4858C14.2854 26.8885 13.3698 29.2674 12.6748 31.5332C12.2189 31.4025 11.7663 31.2607 11.3174 31.1079ZM13.9767 12.9994C12.9431 7.71531 13.6295 3.72934 15.3571 2.72892C17.197 1.66338 21.2657 3.1826 25.5542 6.9917C25.8339 7.24064 26.109 7.49464 26.3794 7.75357C24.7814 9.47007 23.2025 11.4243 21.6941 13.5536C19.1074 13.7935 16.6313 14.1786 14.3548 14.6946C14.2146 14.1329 14.0885 13.5675 13.9767 12.9994ZM37.7013 18.8598C37.1636 17.9307 36.6059 17.0133 36.0287 16.1083C37.7836 16.3303 39.4649 16.6249 41.0438 16.9851C40.5699 18.505 39.979 20.0938 39.2836 21.7229C38.7753 20.7581 38.2477 19.8035 37.7013 18.8598ZM28.0264 9.43354C29.1101 10.608 30.1955 11.9192 31.263 13.3419C29.0974 13.2396 26.9282 13.2392 24.7625 13.3406C25.8312 11.931 26.9258 10.6216 28.0264 9.43354ZM18.2895 18.8757C17.7499 19.8118 17.2322 20.7604 16.7368 21.7207C16.0528 20.0975 15.4673 18.5013 14.9893 16.96C16.5585 16.6088 18.2319 16.3217 19.9756 16.1038C19.392 17.0144 18.8298 17.9387 18.2895 18.8757ZM20.0256 32.9204C18.2242 32.7193 16.5256 32.447 14.9568 32.1053C15.4424 30.5364 16.0407 28.9063 16.7396 27.2483C17.2369 28.2093 17.7568 29.1584 18.2987 30.095C18.856 31.0578 19.4331 32.0008 20.0256 32.9204ZM28.0913 39.5892C26.9776 38.3874 25.8668 37.0577 24.7821 35.6277C25.8352 35.669 26.9088 35.69 28 35.69C29.1211 35.69 30.2292 35.6649 31.32 35.6163C30.249 37.0721 29.1677 38.4037 28.0913 39.5892ZM39.3057 27.1636C40.0409 28.8399 40.6605 30.4614 41.1525 32.0034C39.5579 32.3675 37.8362 32.6606 36.0221 32.8783C36.6034 31.9565 37.1663 31.0231 37.7105 30.0789C38.2638 29.1191 38.7957 28.1471 39.3057 27.1636ZM35.6753 28.9046C34.8421 30.3523 33.9622 31.7725 33.0368 33.1631C31.3605 33.2819 29.6805 33.3409 28 33.3399C26.2883 33.3399 24.6235 33.2867 23.0204 33.1826C22.0708 31.7954 21.174 30.3726 20.332 28.9175C19.4939 27.4701 18.7113 25.9914 17.9855 24.4845C18.7095 22.9773 19.4899 21.4978 20.3251 20.0493L20.3249 20.0496C21.1597 18.6006 22.0493 17.184 22.9918 15.8027C24.6274 15.6789 26.3047 15.6144 27.9998 15.6144C29.7026 15.6144 31.3823 15.6795 33.0175 15.8042C33.9504 17.1834 34.8343 18.5952 35.6676 20.0369C36.5055 21.4822 37.2962 22.9545 38.0386 24.4512C37.3038 25.9632 36.5156 27.4486 35.6753 28.9046ZM40.5222 2.65864C42.3638 3.72117 43.0801 8.00587 41.9229 13.6248C41.8488 13.9835 41.7664 14.3481 41.6759 14.7187C39.3938 14.1917 36.916 13.7999 34.3218 13.5564C32.8106 11.4036 31.2446 9.44643 29.6726 7.75206C30.0846 7.35481 30.5064 6.96785 30.9376 6.59154C34.9981 3.05687 38.7931 1.66123 40.5222 2.65864ZM28 19.5157C30.7124 19.5157 32.9113 21.7153 32.9113 24.4286C32.9113 27.1419 30.7124 29.3415 28 29.3415C25.2876 29.3415 23.0887 27.1419 23.0887 24.4286C23.0887 21.7153 25.2876 19.5157 28 19.5157Z" fill="#00D8FF"/>
</svg>
